<?xml version="1.0" standalone="no"?><!DOCTYPE svg PUBLIC "-//W3C//DTD SVG 1.1//EN" "http://www.w3.org/Graphics/SVG/1.1/DTD/svg11.dtd"><svg class="icon" width="200px" height="200.00px" viewBox="0 0 1024 1024" version="1.1" xmlns="http://www.w3.org/2000/svg"><path d="M857.4 615c-6.4 0-12.8-2.4-17.7-7.3L526 294c-3.8-3.8-8.7-5.8-14-5.8-5.3 0-10.3 2.1-14 5.8L184.3 607.6c-9.8 9.8-25.6 9.8-35.4 0-9.8-9.8-9.8-25.6 0-35.4l313.7-313.7c27.2-27.2 71.6-27.2 98.8 0l313.7 313.7c9.8 9.8 9.8 25.6 0 35.4-4.9 4.9-11.3 7.4-17.7 7.4z" fill="#333333" /><path d="M512 935.2c-13.8 0-25-11.2-25-25v-647c0-13.8 11.2-25 25-25s25 11.2 25 25v647.1c0 13.7-11.2 24.9-25 24.9zM781.9 198H242.1c-13.8 0-25-11.2-25-25s11.2-25 25-25H782c13.8 0 25 11.2 25 25s-11.3 25-25.1 25z" fill="#333333" /></svg>