<svg width="298" height="56" xmlns="http://www.w3.org/2000/svg" xmlns:xlink="http://www.w3.org/1999/xlink" overflow="hidden"><g transform="translate(-54 -57)"><g><g><g><path d="M18.1372 46.4603 18.1372 37.6255C18.0852 37.0019 17.5655 36.5342 16.9419 36.5342L16.9939 36.5342C13.5119 36.4303 10.3938 36.0665 7.84732 35.5468 7.58747 35.4948 7.27566 35.4948 7.17172 35.7547 7.01581 36.0145 7.06778 36.1704 7.17172 36.4822 7.27566 36.794 7.63944 38.0413 7.63944 38.0413 7.89929 39.0807 9.30245 39.3405 10.1859 39.5484L14.1875 40.4319C16.1104 40.8476 16.6301 42.3547 16.6301 44.3295L16.6301 46.0965 16.6301 46.0965C16.6301 47.6556 16.3702 48.643 15.3309 48.6949 14.0316 48.7469 13.0962 47.4477 12.5765 46.3563 12.5765 46.3563 12.5245 46.3044 12.5245 46.3044L12.5245 46.2524C12.4726 46.1485 12.4206 46.0445 12.4206 45.9406 12.0568 45.1091 11.3292 43.2382 11.3292 43.2382 11.3292 43.2382 11.2253 42.9264 11.0694 42.7705 10.9135 42.6665 10.7576 42.6146 10.5497 42.6146L9.19851 42.6146 10.9135 48.591C11.2773 49.8383 11.693 51.2414 12.6804 52.1769 13.8757 53.3202 15.8505 53.9438 18.449 53.9438 21.0474 53.9438 23.0223 53.3202 24.2175 52.1769 25.205 51.2414 25.6207 49.8383 25.9845 48.591L27.7514 42.5626 26.4002 42.5626C26.1924 42.5626 26.0365 42.6146 25.8806 42.7185 25.7246 42.8224 25.6207 43.1862 25.6207 43.1862 25.6207 43.1862 24.8412 45.0571 24.5294 45.8886 24.4774 45.9926 24.4774 46.0965 24.4254 46.2004L24.4254 46.2524C24.4254 46.2524 24.4254 46.3044 24.3735 46.3044 23.8538 47.4477 22.9183 48.7469 21.6191 48.643 20.5797 48.591 20.3199 47.6036 20.3199 46.0445L20.3199 46.0445 20.3199 44.2776C20.3199 42.3028 20.8396 40.7957 22.7624 40.3799L26.764 39.4964C27.6475 39.2886 29.0507 39.0287 29.3105 37.9893 29.3105 37.9893 29.6743 36.7421 29.7782 36.4303 29.8822 36.1184 29.9341 35.9625 29.7782 35.7027 29.6223 35.4428 29.3105 35.4428 29.1026 35.4948 26.5562 36.0145 23.438 36.3783 20.0081 36.4303L20.06 36.4303C19.4364 36.4303 18.9167 36.898 18.8647 37.5216L18.8647 46.3563C18.8647 46.5642 18.7088 46.7201 18.501 46.7201 18.2931 46.8241 18.1372 46.6682 18.1372 46.4603" fill="#ED6C00" transform="matrix(1.0106 0 0 1 54 58.0281)"/><path d="M18.6569 1.19529C18.6569 1.19529 15.9545 2.70239 14.9671 4.78115 14.5513 5.66462 14.8112 6.18431 16.3702 5.24887 18.6049 3.84571 20.6317 2.80633 23.0223 1.97482 25.6727 1.03938 30.5058-0.103938 30.8696 0.051969 31.0255 0.103938 31.0255 0.415752 30.7656 0.623628 23.9057 6.91188 23.1782 11.5891 25.0491 12.3686 25.9845 12.7324 27.5436 12.5245 28.8948 12.0568 30.2979 11.5891 31.6491 11.0174 33.2082 10.9655 36.846 10.8615 38.4051 17.7734 34.4554 24.3735 32.2208 28.0633 26.2963 32.7405 25.8806 32.5326 25.6727 32.4806 25.6207 32.2727 25.7246 31.909 25.7766 31.7011 27.9073 27.0239 26.2443 26.2963 25.9845 26.1924 25.3089 26.3483 24.6853 27.8554 23.9057 29.7782 23.2821 30.142 22.9183 30.0381 22.6065 29.9341 22.7104 29.4144 22.7624 29.0507 22.8144 28.6869 22.8664 28.3751 22.7104 28.531 22.5026 28.6349 20.6317 30.7656 20.06 30.7137 19.8522 30.7137 19.6962 30.4538 19.8522 30.142 20.0081 29.8302 20.112 29.4144 20.112 29.4144 20.112 29.4144 16.838 32.5846 12.8883 33.3121 12.5765 33.3641 11.797 33.572 11.5371 33.4161 11.3812 33.3641 11.3292 33.0003 11.5891 32.8444 11.8489 32.6885 16.0584 30.5058 17.8773 27.4396 18.449 26.5042 18.449 26.0365 18.2931 25.7766 17.9293 25.153 16.1624 25.7766 14.9671 26.2443 13.7718 26.764 12.0048 27.7514 9.77017 28.1672 7.01581 28.6349 3.6898 27.8034 1.97482 25.6727 2.30789e-15 23.2301-0.103938 20.7876 0.155907 18.3451 0.987411 10.7056 8.36701 5.82053 10.9135 4.26146 13.9797 2.39057 18.5529 0.415752 18.9167 0.51969 19.0726 0.623628 19.1766 0.883473 18.6569 1.19529" fill="#ED6C00" transform="matrix(1.0106 0 0 1 54 58.0281)"/><path d="M75.0952 18.2411 75.0952 36.3783C75.0952 40.6917 75.1991 42.6146 76.4983 44.3295 77.7976 46.0965 79.9803 46.928 82.163 46.928 84.2417 46.928 86.9961 46.0965 88.1914 43.7579 89.0229 42.3547 89.4386 40.8476 89.4386 36.3263L89.4386 18.2411 94.2717 18.2411 94.2717 36.4822C94.2717 38.7689 95.2592 50.7217 80.8118 50.7217 78.733 50.7217 72.4448 50.4619 69.3266 45.0051 68.2353 43.0823 67.9754 40.8476 67.9754 37.2098L67.9754 18.2411 75.0952 18.2411Z" fill="#06383C" transform="matrix(1.0106 0 0 1 54 58.0281)"/><path d="M115.215 22.5545C113.396 21.9309 111.733 21.4632 109.551 21.4632 106.069 21.4632 104.094 23.0742 104.094 25.2569 104.094 26.816 105.081 28.2711 108.459 30.5058L110.694 32.0129C115.371 35.131 118.541 37.4177 118.541 41.835 118.541 46.8241 114.124 50.7737 107.056 50.7737 102.951 50.7737 99.6245 49.3186 97.8056 48.4871L97.8056 44.2776 99.9883 45.3689C102.067 46.3044 104.198 47.1878 106.952 47.1878 110.642 47.1878 112.305 45.161 112.305 43.2382 112.305 41.1594 110.642 39.8082 107.42 37.6255L105.185 36.0665C101.236 33.468 97.8576 30.7137 97.8576 26.4002 97.8576 21.6191 102.639 17.9293 109.291 17.9293 112.097 17.9293 114.384 18.449 116.151 19.0726L116.151 23.0742 115.215 22.5545Z" fill="#06383C" transform="matrix(1.0106 0 0 1 54 58.0281)"/><path d="M61.8431 22.5545C60.0242 21.9309 58.3612 21.4632 56.1785 21.4632 52.6966 21.4632 50.7217 23.0742 50.7217 25.2569 50.7217 26.816 51.7091 28.2711 55.0871 30.5058L57.3218 32.0129C61.999 35.131 65.1691 37.4177 65.1691 41.835 65.1691 46.8241 60.6998 50.7737 53.684 50.7737 49.5784 50.7737 46.2524 49.3186 44.4335 48.4871L44.4335 44.2776 46.6162 45.3689C48.6949 46.3044 50.8257 47.1878 53.58 47.1878 57.2698 47.1878 58.9328 45.161 58.9328 43.2382 58.9328 41.1594 57.2698 39.8082 54.0477 37.6255L51.8131 36.0665C47.8634 33.468 44.4855 30.7137 44.4855 26.4002 44.4855 21.6191 49.2666 17.9293 55.9186 17.9293 58.725 17.9293 61.0116 18.449 62.7785 19.0726L62.7785 23.0742 61.8431 22.5545Z" fill="#06383C" transform="matrix(1.0106 0 0 1 54 58.0281)"/><path d="M145.357 18.2411 145.357 21.8789 135.795 21.8789 135.795 50.254 128.779 50.254 128.779 21.8789 119.165 21.8789 119.165 18.2411Z" fill="#06383C" transform="matrix(1.0106 0 0 1 54 58.0281)"/><path d="M158.09 38.1972C158.038 37.0539 157.778 35.8586 156.998 34.9751 156.219 34.0917 155.179 33.7279 153.984 33.7279 152.737 33.7279 151.749 34.1956 150.866 35.0791 150.034 35.9625 149.515 37.0019 149.255 38.1972L158.09 38.1972ZM188.699 32.8444C190.155 31.0775 192.025 30.194 194.416 30.194 199.457 30.194 201.172 33.6759 201.172 38.3011L201.172 50.306 196.962 50.306 196.962 39.0287C196.962 36.3783 196.287 33.8318 193.221 33.8318 191.921 33.8318 190.83 34.3515 189.999 35.3389 189.063 36.4303 188.699 37.7815 188.699 39.1846L188.699 50.254 184.49 50.254 184.49 21.6191 188.699 21.6191 188.699 32.8444ZM180.54 49.3705C178.877 50.3579 177.006 50.7217 175.135 50.7217 172.485 50.7217 170.094 49.8902 168.276 47.9674 166.405 45.9926 165.677 43.55 165.677 40.8996 165.677 37.9893 166.457 35.2869 168.483 33.1562 170.458 31.0255 173.109 30.194 175.967 30.194 177.526 30.194 179.137 30.4538 180.592 31.1814L180.852 31.2853 180.852 35.7027 180.125 35.183C178.877 34.2995 177.526 33.8318 175.967 33.8318 174.252 33.8318 172.797 34.4035 171.654 35.6507 170.406 37.0539 169.991 38.8208 169.991 40.6397 169.991 42.3547 170.354 44.1217 171.55 45.4209 172.693 46.6162 174.148 47.1359 175.759 47.1359 177.37 47.1359 178.773 46.5642 180.073 45.6288L180.8 45.1091 180.8 49.3186 180.54 49.3705ZM149.255 41.7311C149.359 43.1343 149.723 44.5894 150.762 45.6288 151.853 46.7721 153.309 47.1359 154.816 47.1359 156.894 47.1359 158.713 46.4603 160.324 45.213L161.052 44.6414 161.052 48.7469 160.844 48.9028C158.869 50.306 156.375 50.7217 154.036 50.7217 151.438 50.7217 149.099 49.9422 147.332 48.0193 145.513 45.9406 144.941 43.2382 144.941 40.5878 144.941 37.8334 145.669 35.2869 147.54 33.2082 149.307 31.2334 151.49 30.246 154.088 30.246 156.479 30.246 158.609 30.9735 160.168 32.7405 161.831 34.6633 162.351 37.2098 162.351 39.6523L162.351 41.7831 149.255 41.7831Z" fill="#06383C" transform="matrix(1.0106 0 0 1 54 58.0281)"/><path d="M259.221 43.8099 257.35 48.8508C257.039 49.5784 256.831 50.0981 256.571 50.306 256.363 50.5139 255.999 50.6698 255.583 50.6698 255.428 50.6698 255.324 50.6698 255.168 50.6178L255.168 49.8902C255.272 49.9422 255.428 49.9422 255.635 49.9422 255.843 49.9422 255.999 49.8383 256.103 49.7343 256.207 49.5784 256.363 49.3186 256.519 48.9028L256.519 48.7989 256.519 48.7989 254.7 43.8099 255.168 43.8099 255.635 43.8099 256.935 47.8634 258.234 43.8099 258.702 43.8099 259.221 43.8099ZM251.738 44.3815C251.27 44.3815 250.958 44.5374 250.75 44.7973 250.542 45.1091 250.439 45.5768 250.439 46.2004 250.439 46.8241 250.542 47.2398 250.802 47.6036 251.01 47.9154 251.374 48.0713 251.79 48.0713 252.205 48.0713 252.517 47.9154 252.725 47.6036 252.985 47.2918 253.089 46.928 253.089 46.4083 253.089 45.7327 252.985 45.213 252.777 44.8492 252.517 44.5894 252.205 44.3815 251.738 44.3815M251.582 50.0981C252.05 50.0981 252.413 49.9422 252.673 49.6304 252.933 49.3186 253.037 48.9028 253.037 48.3312L253.037 48.1752 253.037 48.1752C252.673 48.591 252.257 48.7989 251.738 48.7989 251.062 48.7989 250.542 48.539 250.179 48.0713 249.815 47.6036 249.607 46.928 249.607 46.0965 249.607 45.3689 249.815 44.7453 250.179 44.3295 250.542 43.8618 251.062 43.6539 251.686 43.6539 252.257 43.6539 252.725 43.9138 253.089 44.4335L253.141 44.5374 253.141 43.8618 253.92 43.8618 253.92 48.3312C253.92 49.1627 253.713 49.7863 253.349 50.1501 252.985 50.5658 252.413 50.7217 251.634 50.7217 251.062 50.7217 250.646 50.6178 250.335 50.3579 250.023 50.0981 249.815 49.7343 249.763 49.2666L250.594 49.2666C250.646 49.5264 250.75 49.7343 250.958 49.8902 251.062 49.9942 251.322 50.0981 251.582 50.0981M246.333 48.1233C246.749 48.1233 247.113 47.9674 247.372 47.6036 247.632 47.2918 247.736 46.8241 247.736 46.2524 247.736 45.6807 247.632 45.213 247.372 44.9012 247.113 44.5894 246.749 44.3815 246.333 44.3815 245.917 44.3815 245.553 44.5374 245.294 44.9012 245.034 45.265 244.93 45.6807 244.93 46.2524 244.93 46.8241 245.034 47.2918 245.294 47.6036 245.553 47.9674 245.917 48.1233 246.333 48.1233M246.333 48.8508C245.657 48.8508 245.086 48.591 244.67 48.1233 244.254 47.6556 244.046 47.0319 244.046 46.2524 244.046 45.4729 244.254 44.8492 244.67 44.3815 245.086 43.9138 245.657 43.6539 246.333 43.6539 247.009 43.6539 247.58 43.9138 247.996 44.3815 248.412 44.8492 248.62 45.4729 248.62 46.2524 248.62 47.0319 248.412 47.6556 247.996 48.1233 247.58 48.591 247.009 48.8508 246.333 48.8508M242.02 48.6949 242.02 41.9909 242.435 41.9909 242.851 41.9909 242.851 48.6949 242.435 48.6949 242.02 48.6949ZM238.59 48.1233C239.005 48.1233 239.369 47.9674 239.629 47.6036 239.889 47.2918 239.993 46.8241 239.993 46.2524 239.993 45.6807 239.889 45.213 239.629 44.9012 239.369 44.5894 239.005 44.3815 238.59 44.3815 238.174 44.3815 237.81 44.5374 237.55 44.9012 237.29 45.265 237.186 45.6807 237.186 46.2524 237.186 46.8241 237.29 47.2918 237.55 47.6036 237.81 47.9674 238.122 48.1233 238.59 48.1233M238.59 48.8508C237.914 48.8508 237.394 48.591 236.927 48.1233 236.511 47.6556 236.303 47.0319 236.303 46.2524 236.303 45.4729 236.511 44.8492 236.927 44.3815 237.342 43.9138 237.914 43.6539 238.59 43.6539 239.265 43.6539 239.837 43.9138 240.253 44.3815 240.668 44.8492 240.876 45.4729 240.876 46.2524 240.876 47.0319 240.668 47.6556 240.253 48.1233 239.785 48.591 239.265 48.8508 238.59 48.8508M231.158 48.6949 231.158 43.8099 231.522 43.8099 231.938 43.8099 231.938 44.5374 232.093 44.2776C232.457 43.8618 232.873 43.6539 233.445 43.6539 233.964 43.6539 234.38 43.8099 234.692 44.0697 235.004 44.3815 235.108 44.7973 235.108 45.317L235.108 48.6949 234.692 48.6949 234.276 48.6949 234.276 45.6288C234.276 45.213 234.172 44.9012 234.016 44.6933 233.86 44.4855 233.601 44.3815 233.237 44.3815 232.821 44.3815 232.509 44.5374 232.301 44.8492 232.093 45.161 231.938 45.5768 231.938 46.0965L231.938 48.6949 231.522 48.6949 231.158 48.6949ZM225.701 48.6949 225.701 41.9909 226.117 41.9909 226.533 41.9909 226.533 44.4855 226.689 44.2776C227.052 43.8618 227.468 43.6539 228.04 43.6539 228.56 43.6539 228.975 43.8099 229.287 44.0697 229.599 44.3815 229.703 44.7973 229.703 45.317L229.703 48.6949 229.287 48.6949 228.871 48.6949 228.871 45.5248C228.871 45.1091 228.767 44.8492 228.664 44.6414 228.508 44.4855 228.248 44.3815 227.884 44.3815 227.468 44.3815 227.156 44.5374 226.897 44.8492 226.637 45.161 226.533 45.5768 226.533 46.0965L226.533 48.6949 226.117 48.6949 225.701 48.6949ZM224.61 46.928 224.61 46.928C224.506 47.5516 224.298 48.0193 223.934 48.3312 223.571 48.643 223.103 48.7989 222.531 48.7989 221.908 48.7989 221.388 48.539 220.972 48.1233 220.556 47.6556 220.4 47.0319 220.4 46.2524 220.4 45.4729 220.608 44.8492 221.024 44.3815 221.44 43.9138 221.96 43.6539 222.635 43.6539 223.207 43.6539 223.675 43.8099 224.038 44.1217 224.402 44.4335 224.558 44.9012 224.61 45.4209L223.83 45.4209C223.778 45.0571 223.675 44.7973 223.467 44.5894 223.259 44.3815 222.999 44.2776 222.635 44.2776 222.219 44.2776 221.908 44.4335 221.648 44.7973 221.388 45.1091 221.284 45.5768 221.284 46.1485 221.284 46.7721 221.388 47.2398 221.596 47.5516 221.804 47.8634 222.115 48.0193 222.583 48.0193 222.895 48.0193 223.155 47.9154 223.363 47.7075 223.571 47.4997 223.726 47.1878 223.778 46.8241L224.61 46.8241ZM218.685 45.8886 218.685 45.8886C218.685 45.4209 218.53 45.1091 218.322 44.8492 218.114 44.5894 217.75 44.4335 217.334 44.4335 216.919 44.4335 216.555 44.5894 216.295 44.9012 216.087 45.161 215.983 45.4729 215.931 45.8886L218.685 45.8886ZM217.334 48.8508C216.659 48.8508 216.087 48.643 215.723 48.1752 215.307 47.7595 215.152 47.1359 215.152 46.3563 215.152 45.5248 215.359 44.9012 215.775 44.3815 216.191 43.9138 216.763 43.6539 217.49 43.6539 218.114 43.6539 218.634 43.9138 219.049 44.3815 219.465 44.8492 219.621 45.4729 219.621 46.2524L219.621 46.5642 216.035 46.5642C216.087 47.0319 216.191 47.3957 216.347 47.6556 216.555 47.9674 216.919 48.1233 217.438 48.1233 217.75 48.1233 218.01 48.0193 218.27 47.8634 218.53 47.7075 218.634 47.4477 218.685 47.1878L219.517 47.1878C219.413 47.7075 219.153 48.1233 218.789 48.4351 218.374 48.6949 217.906 48.8508 217.334 48.8508M211.15 48.6949 211.15 42.7705 208.915 42.7705 208.915 42.3547 208.915 41.939 214.372 41.939 214.372 42.3547 214.372 42.7705 212.085 42.7705 212.085 48.6949 211.618 48.6949 211.15 48.6949ZM269.615 32.3767C269.147 32.3767 268.836 32.5326 268.628 32.7924 268.42 33.1042 268.316 33.572 268.316 34.1956 268.316 34.8192 268.42 35.2869 268.68 35.5988 268.888 35.9106 269.251 36.0665 269.667 36.0665 270.083 36.0665 270.395 35.9106 270.654 35.5988 270.914 35.2869 271.018 34.9232 271.018 34.4035 271.018 33.7279 270.914 33.2082 270.654 32.8444 270.343 32.5846 270.031 32.3767 269.615 32.3767M269.563 36.794C268.888 36.794 268.368 36.5342 268.004 36.0665 267.64 35.5988 267.432 34.9232 267.432 34.0917 267.432 33.3641 267.64 32.7405 268.004 32.3247 268.368 31.857 268.888 31.6491 269.459 31.6491 270.031 31.6491 270.551 31.909 270.862 32.4286L270.914 32.5326 270.914 29.9861 271.33 29.9861 271.746 29.9861 271.746 36.6901 271.382 36.6901 271.018 36.6901 271.018 36.0145 270.914 36.1704C270.551 36.5862 270.083 36.794 269.563 36.794M262.236 36.6901 262.236 31.805 262.599 31.805 263.015 31.805 263.015 32.5326 263.223 32.2727C263.587 31.857 264.002 31.6491 264.574 31.6491 265.094 31.6491 265.51 31.805 265.821 32.0649 266.133 32.3767 266.237 32.7924 266.237 33.3121L266.237 36.6381 265.821 36.6381 265.406 36.6381 265.406 33.572C265.406 33.1562 265.302 32.8444 265.146 32.6365 264.99 32.4286 264.73 32.3247 264.366 32.3247 263.95 32.3247 263.639 32.4806 263.431 32.7924 263.223 33.1042 263.067 33.52 263.067 33.9877L263.067 36.5862 262.651 36.5862 262.236 36.5862ZM259.793 34.7673 259.793 34.2476C259.637 34.2995 259.481 34.3515 259.273 34.4035L258.494 34.5074C258.078 34.5594 257.818 34.6633 257.61 34.7673 257.402 34.9232 257.35 35.0791 257.35 35.2869 257.35 35.5468 257.402 35.7547 257.558 35.9106 257.714 36.0665 257.922 36.1184 258.182 36.1184 258.598 36.1184 258.961 36.0145 259.273 35.7547 259.481 35.5988 259.637 35.3909 259.689 35.183 259.689 35.131 259.689 35.0791 259.741 34.9751 259.793 34.9232 259.793 34.8712 259.793 34.7673M258.078 36.794C257.61 36.794 257.195 36.6901 256.935 36.4303 256.675 36.1704 256.519 35.8066 256.519 35.3909 256.519 34.9751 256.675 34.6113 256.935 34.3515 257.195 34.0917 257.558 33.9357 258.078 33.8838L259.221 33.7279C259.325 33.7279 259.377 33.7279 259.481 33.6759 259.585 33.6759 259.689 33.572 259.741 33.52 259.793 33.4161 259.845 33.3121 259.845 33.2082L259.845 33.1562C259.845 32.8964 259.741 32.6885 259.533 32.5326 259.325 32.3767 259.065 32.3247 258.702 32.3247 258.338 32.3247 258.078 32.3767 257.922 32.5846 257.714 32.7405 257.61 32.9483 257.558 33.2602L256.779 33.2602C256.831 32.7405 256.987 32.3247 257.35 32.0649 257.662 31.805 258.182 31.6491 258.806 31.6491 259.377 31.6491 259.845 31.805 260.157 32.0129 260.469 32.2727 260.624 32.6365 260.624 33.1562L260.624 35.8586C260.624 35.9625 260.624 36.0145 260.676 36.0665 260.728 36.1184 260.78 36.1184 260.884 36.1184 260.936 36.1184 260.936 36.1184 260.988 36.1184 261.04 36.1184 261.092 36.1184 261.144 36.0665L261.144 36.6381C261.04 36.6901 260.988 36.6901 260.884 36.6901 260.78 36.6901 260.728 36.7421 260.676 36.7421 260.365 36.7421 260.157 36.6381 260.001 36.4822 259.897 36.3783 259.845 36.2224 259.793 36.0145 259.741 36.0665 259.637 36.1704 259.585 36.2224 259.169 36.6381 258.65 36.794 258.078 36.794M252.621 33.8318 252.621 33.8318C252.621 33.3641 252.465 33.0523 252.309 32.7924 252.102 32.5326 251.738 32.3767 251.322 32.3767 250.906 32.3767 250.542 32.5326 250.283 32.8444 250.075 33.1042 249.971 33.4161 249.919 33.8318L252.621 33.8318ZM251.27 36.794C250.594 36.794 250.023 36.5862 249.659 36.1184 249.243 35.7027 249.087 35.0791 249.087 34.2995 249.087 33.468 249.295 32.8444 249.711 32.3247 250.127 31.857 250.698 31.5971 251.374 31.5971 251.998 31.5971 252.517 31.857 252.933 32.3247 253.349 32.7924 253.505 33.4161 253.505 34.1956L253.505 34.5074 249.919 34.5074C249.971 34.9751 250.075 35.3909 250.231 35.5988 250.439 35.9106 250.802 36.0665 251.322 36.0665 251.634 36.0665 251.894 35.9625 252.154 35.8066 252.413 35.6507 252.517 35.3909 252.569 35.131L253.401 35.131C253.297 35.6507 253.037 36.0665 252.673 36.3783 252.309 36.6901 251.842 36.794 251.27 36.794M248.204 34.9232 248.204 34.9232C248.1 35.5468 247.892 36.0145 247.58 36.3263 247.216 36.6381 246.749 36.794 246.177 36.794 245.553 36.794 245.034 36.5862 244.618 36.1184 244.254 35.6507 244.046 35.0271 244.046 34.2476 244.046 33.468 244.254 32.8444 244.67 32.3767 245.086 31.909 245.605 31.7011 246.281 31.7011 246.853 31.7011 247.32 31.857 247.684 32.1688 248.048 32.4806 248.204 32.9483 248.256 33.468L247.476 33.468C247.424 33.1042 247.32 32.8444 247.113 32.6365 246.905 32.4286 246.645 32.3247 246.281 32.3247 245.865 32.3247 245.553 32.4806 245.294 32.8444 245.034 33.1562 244.93 33.6239 244.93 34.1956 244.93 34.8192 245.034 35.2869 245.242 35.5988 245.45 35.9106 245.813 36.0665 246.229 36.0665 246.541 36.0665 246.801 35.9625 247.009 35.7547 247.216 35.5468 247.372 35.235 247.424 34.8712L248.204 34.8712ZM238.901 36.6901 238.901 31.805 239.265 31.805 239.681 31.805 239.681 32.5326 239.837 32.2727C240.201 31.857 240.616 31.6491 241.188 31.6491 241.708 31.6491 242.124 31.805 242.435 32.0649 242.747 32.3767 242.851 32.7924 242.851 33.3121L242.851 36.6381 242.435 36.6381 242.02 36.6381 242.02 33.572C242.02 33.1562 241.916 32.8444 241.76 32.6365 241.604 32.4286 241.344 32.3247 240.98 32.3247 240.564 32.3247 240.253 32.4806 240.045 32.7924 239.837 33.1042 239.681 33.52 239.681 33.9877L239.681 36.5862 239.265 36.5862 238.901 36.5862ZM236.823 33.8318 236.823 33.8318C236.823 33.3641 236.667 33.0523 236.511 32.7924 236.303 32.5326 235.939 32.3767 235.523 32.3767 235.108 32.3767 234.744 32.5326 234.484 32.8444 234.276 33.1042 234.172 33.4161 234.12 33.8318L236.823 33.8318ZM235.471 36.794C234.796 36.794 234.224 36.5862 233.86 36.1184 233.445 35.7027 233.289 35.0791 233.289 34.2995 233.289 33.468 233.497 32.8444 233.912 32.3247 234.328 31.857 234.9 31.5971 235.575 31.5971 236.199 31.5971 236.719 31.857 237.134 32.3247 237.55 32.7924 237.706 33.4161 237.706 34.1956L237.706 34.5074 234.12 34.5074C234.172 34.9751 234.276 35.3909 234.432 35.5988 234.64 35.9106 235.004 36.0665 235.523 36.0665 235.835 36.0665 236.095 35.9625 236.355 35.8066 236.563 35.6507 236.719 35.3909 236.771 35.131L237.602 35.131C237.498 35.6507 237.238 36.0665 236.875 36.3783 236.511 36.6901 236.043 36.794 235.471 36.794M231.158 29.9341 231.99 29.9341 231.99 30.8696 231.158 30.8696 231.158 29.9341ZM231.158 36.6901 231.158 31.805 231.574 31.805 231.99 31.805 231.99 36.6901 231.574 36.6901 231.158 36.6901ZM230.067 34.9232 230.067 34.9232C229.963 35.5468 229.755 36.0145 229.391 36.3263 229.027 36.6381 228.56 36.794 227.988 36.794 227.312 36.794 226.845 36.5862 226.429 36.1184 226.065 35.6507 225.857 35.0271 225.857 34.2476 225.857 33.468 226.065 32.8444 226.481 32.3767 226.897 31.909 227.416 31.7011 228.092 31.7011 228.664 31.7011 229.131 31.857 229.495 32.1688 229.859 32.4806 230.015 32.9483 230.067 33.468L229.287 33.468C229.235 33.1042 229.131 32.8444 228.923 32.6365 228.716 32.4286 228.456 32.3247 228.092 32.3247 227.676 32.3247 227.364 32.4806 227.104 32.8444 226.897 33.1562 226.741 33.6239 226.741 34.1956 226.741 34.8192 226.845 35.2869 227.052 35.5988 227.26 35.9106 227.572 36.0665 228.04 36.0665 228.352 36.0665 228.612 35.9625 228.819 35.7547 229.027 35.5468 229.183 35.235 229.235 34.8712L230.067 34.8712ZM223.934 31.909 223.934 31.909C223.882 31.4932 223.726 31.1814 223.415 30.9215 223.103 30.7137 222.739 30.5578 222.219 30.5578 221.7 30.5578 221.336 30.6617 221.024 30.8696 220.764 31.0775 220.608 31.3373 220.608 31.753 220.608 32.0129 220.712 32.2208 220.868 32.3247 221.024 32.4286 221.388 32.5846 221.908 32.6885L223.103 32.9483C223.726 33.1042 224.194 33.3121 224.454 33.6239 224.714 33.9357 224.87 34.2995 224.87 34.8712 224.87 35.4948 224.662 35.9625 224.194 36.3263 223.726 36.6901 223.103 36.846 222.323 36.846 221.44 36.846 220.764 36.6381 220.245 36.2224 219.777 35.8066 219.517 35.2869 219.517 34.5594L219.517 34.5074 220.348 34.5074C220.348 34.9751 220.556 35.3909 220.868 35.6507 221.232 35.9106 221.7 36.0665 222.271 36.0665 222.843 36.0665 223.259 35.9625 223.519 35.7547 223.778 35.5468 223.934 35.2869 223.934 34.9232 223.934 34.6113 223.83 34.3515 223.675 34.1956 223.467 34.0397 223.103 33.8838 222.531 33.7798L221.336 33.52C220.764 33.3641 220.297 33.2082 220.089 32.9483 219.829 32.6885 219.725 32.3247 219.725 31.909 219.725 31.2853 219.933 30.7656 220.4 30.4019 220.816 30.0381 221.44 29.8302 222.167 29.8302 222.947 29.8302 223.519 30.0381 223.986 30.4019 224.454 30.7656 224.662 31.2853 224.714 31.9609L223.934 31.9609ZM215.827 32.4806 215.827 32.4806 215.827 36.6901 215.411 36.6901 214.996 36.6901 214.996 32.4806 214.32 32.4806 214.32 31.805 214.996 31.805 214.996 30.9735C214.996 30.6097 215.1 30.3499 215.307 30.142 215.515 29.9341 215.827 29.8822 216.243 29.8822L216.607 29.8822 216.607 30.6097 216.295 30.6097C216.139 30.6097 216.035 30.6617 215.931 30.7656 215.827 30.8696 215.827 31.0255 215.827 31.1814L215.827 31.753 216.659 31.753 216.659 32.4286 215.827 32.4286ZM211.358 36.1184C211.774 36.1184 212.137 35.9625 212.397 35.5988 212.657 35.235 212.761 34.8192 212.761 34.2476 212.761 33.6759 212.657 33.2082 212.397 32.8964 212.137 32.5326 211.826 32.3767 211.358 32.3767 210.942 32.3767 210.578 32.5326 210.318 32.8964 210.059 33.2082 209.955 33.6759 209.955 34.2476 209.955 34.8192 210.059 35.2869 210.318 35.5988 210.578 35.9106 210.942 36.1184 211.358 36.1184M211.358 36.794C210.682 36.794 210.111 36.5342 209.695 36.0665 209.279 35.5988 209.071 34.9751 209.071 34.1956 209.071 33.4161 209.279 32.7924 209.695 32.3247 210.111 31.857 210.682 31.5971 211.358 31.5971 212.033 31.5971 212.605 31.857 213.021 32.3247 213.437 32.7924 213.645 33.4161 213.645 34.1956 213.645 34.9751 213.437 35.5988 213.021 36.0665 212.605 36.5862 212.033 36.794 211.358 36.794M293.885 19.7482 292.014 24.7892C291.702 25.5687 291.494 26.0365 291.234 26.2443 291.026 26.4522 290.663 26.6081 290.247 26.6081 290.091 26.6081 289.987 26.6081 289.831 26.5562L289.831 25.7766C289.935 25.8286 290.091 25.8286 290.299 25.8286 290.507 25.8286 290.611 25.7766 290.766 25.6207 290.87 25.4648 291.026 25.205 291.182 24.7892L291.182 24.7372 291.182 24.7372 289.363 19.7482 289.831 19.7482 290.299 19.7482 291.598 23.8018 292.897 19.7482 293.365 19.7482 293.885 19.7482ZM288.896 24.6333C288.636 24.6853 288.428 24.6853 288.272 24.6853 287.908 24.6853 287.648 24.6333 287.492 24.4254 287.337 24.2695 287.285 24.0097 287.285 23.5939L287.285 20.3718 286.609 20.3718 286.609 19.7482 287.285 19.7482 287.285 18.397 288.116 18.397 288.116 19.7482 288.896 19.7482 288.896 20.4238 288.116 20.4238 288.116 23.6459C288.116 23.7498 288.168 23.8538 288.272 23.9057 288.376 23.9577 288.48 24.0097 288.636 24.0097L288.948 24.0097 288.948 24.6333ZM284.79 17.9293 285.622 17.9293 285.622 18.8647 284.79 18.8647 284.79 17.9293ZM284.79 24.6853 284.79 19.7482 285.206 19.7482 285.622 19.7482 285.622 24.6333 285.206 24.6333 284.79 24.6333ZM282.659 21.2033 282.659 21.2033C282.607 20.9435 282.503 20.7356 282.348 20.5797 282.14 20.4238 281.88 20.3718 281.568 20.3718 281.204 20.3718 280.944 20.4238 280.788 20.5278 280.633 20.6317 280.529 20.8396 280.529 21.0474 280.529 21.2033 280.581 21.3593 280.736 21.4632 280.84 21.5671 281.1 21.6191 281.464 21.723L282.296 21.9309C282.763 22.0349 283.127 22.1908 283.335 22.3986 283.543 22.6065 283.647 22.8664 283.647 23.2301 283.647 23.6979 283.491 24.1136 283.127 24.3735 282.763 24.6333 282.296 24.7892 281.724 24.7892 281.048 24.7892 280.529 24.6333 280.165 24.3735 279.801 24.1136 279.645 23.6979 279.593 23.0742L280.373 23.0742C280.425 23.438 280.529 23.6459 280.736 23.8018 280.944 23.9577 281.256 24.0616 281.672 24.0616 282.036 24.0616 282.348 24.0097 282.503 23.8538 282.711 23.6979 282.815 23.49 282.815 23.2301 282.815 23.0742 282.763 22.9183 282.607 22.8664 282.503 22.7624 282.244 22.7104 281.828 22.6065L280.996 22.3986C280.529 22.2947 280.217 22.1388 280.009 21.9309 279.801 21.723 279.697 21.4632 279.697 21.0994 279.697 20.6317 279.853 20.2679 280.165 20.0081 280.477 19.7482 280.944 19.5923 281.516 19.5923 282.088 19.5923 282.555 19.7482 282.867 20.0081 283.179 20.2679 283.387 20.6837 283.387 21.1514L282.659 21.1514ZM276.579 24.6853 276.579 19.7482 276.995 19.7482 277.41 19.7482 277.41 20.5797C277.462 20.4758 277.566 20.3199 277.618 20.2159 277.93 19.8002 278.294 19.5923 278.762 19.5923 278.814 19.5923 278.918 19.5923 278.97 19.6443L278.97 20.4758 278.814 20.4758C278.346 20.4758 278.034 20.6317 277.774 20.8915 277.514 21.1514 277.41 21.5152 277.41 22.0349L277.41 24.6333 276.995 24.6333 276.579 24.6333ZM274.396 21.827 274.396 21.827C274.396 21.3593 274.24 21.0474 274.084 20.7876 273.877 20.5278 273.513 20.3718 273.097 20.3718 272.681 20.3718 272.317 20.5278 272.058 20.8396 271.85 21.0994 271.746 21.4112 271.694 21.827L274.396 21.827ZM273.045 24.7892C272.369 24.7892 271.798 24.5813 271.434 24.1136 271.018 23.6459 270.862 23.0742 270.862 22.2947 270.862 21.4632 271.07 20.8396 271.486 20.3199 271.902 19.8522 272.473 19.5923 273.149 19.5923 273.773 19.5923 274.292 19.8522 274.708 20.3199 275.124 20.7876 275.28 21.4112 275.28 22.1908L275.28 22.5026 271.694 22.5026C271.746 22.9703 271.85 23.3341 272.006 23.5939 272.214 23.9057 272.577 24.0616 273.097 24.0616 273.409 24.0616 273.669 23.9577 273.928 23.8018 274.188 23.6459 274.292 23.386 274.344 23.1262L275.176 23.1262C275.072 23.6459 274.812 24.0616 274.448 24.3735 274.084 24.6333 273.617 24.7892 273.045 24.7892M265.613 19.7482 265.613 19.7482 266.081 19.7482 266.549 19.7482 267.848 23.7498 269.199 19.7482 269.667 19.7482 270.135 19.7482 268.316 24.6333 267.9 24.6333 267.432 24.6333 265.613 19.7482ZM263.795 17.9293 264.626 17.9293 264.626 18.8647 263.795 18.8647 263.795 17.9293ZM263.847 24.6853 263.847 19.7482 264.262 19.7482 264.678 19.7482 264.678 24.6333 264.262 24.6333 263.847 24.6333ZM258.338 24.6853 258.338 19.7482 258.702 19.7482 259.117 19.7482 259.117 20.4758 259.325 20.2679C259.689 19.8522 260.105 19.6443 260.676 19.6443 261.196 19.6443 261.612 19.8002 261.924 20.06 262.236 20.3718 262.339 20.7876 262.339 21.3073L262.339 24.6853 261.924 24.6853 261.508 24.6853 261.508 21.6191C261.508 21.2033 261.404 20.8915 261.248 20.6837 261.092 20.4758 260.832 20.4238 260.469 20.4238 260.053 20.4238 259.741 20.5797 259.533 20.8915 259.325 21.2033 259.169 21.6191 259.169 22.0868L259.169 24.6853 258.754 24.6853 258.338 24.6853ZM256.779 22.1908C256.779 23.0223 256.519 23.6459 256.103 24.1136 255.635 24.5813 255.012 24.8412 254.18 24.8412 253.297 24.8412 252.673 24.6333 252.205 24.1656 251.738 23.6979 251.53 23.0742 251.53 22.1908L251.53 17.9293 251.998 17.9293 252.465 17.9293 252.465 22.1388C252.465 22.7624 252.621 23.2301 252.881 23.542 253.193 23.8538 253.609 24.0097 254.18 24.0097 254.752 24.0097 255.168 23.8538 255.48 23.542 255.791 23.2301 255.895 22.7624 255.895 22.1388L255.895 17.9293 256.363 17.9293 256.831 17.9293 256.831 22.1908ZM243.838 24.6853 243.838 19.7482 244.202 19.7482 244.618 19.7482 244.618 20.4758 244.774 20.2679C245.138 19.8522 245.553 19.6443 246.125 19.6443 246.645 19.6443 247.061 19.8002 247.372 20.06 247.684 20.3718 247.788 20.7876 247.788 21.3073L247.788 24.6853 247.372 24.6853 246.957 24.6853 246.957 21.6191C246.957 21.2033 246.853 20.8915 246.697 20.6837 246.541 20.4758 246.281 20.4238 245.917 20.4238 245.501 20.4238 245.19 20.5797 244.982 20.8915 244.774 21.2033 244.618 21.6191 244.618 22.0868L244.618 24.6853 244.254 24.6853 243.838 24.6853ZM240.564 24.6853 240.564 19.7482 240.928 19.7482 241.344 19.7482 241.344 20.5797C241.396 20.4758 241.5 20.3199 241.552 20.2159 241.864 19.8002 242.227 19.5923 242.695 19.5923 242.747 19.5923 242.851 19.5923 242.903 19.6443L242.903 20.4758 242.747 20.4758C242.279 20.4758 241.968 20.6317 241.708 20.8915 241.448 21.1514 241.344 21.5152 241.344 22.0349L241.344 24.6333 240.928 24.6333 240.564 24.6333ZM238.382 21.827 238.382 21.827C238.33 21.3593 238.226 21.0474 238.018 20.7876 237.81 20.5278 237.446 20.3718 237.031 20.3718 236.615 20.3718 236.251 20.5278 235.991 20.8396 235.783 21.0994 235.679 21.4112 235.627 21.827L238.382 21.827ZM237.031 24.7892C236.355 24.7892 235.783 24.5813 235.42 24.1136 235.004 23.6459 234.848 23.0742 234.848 22.2947 234.848 21.4632 235.056 20.8396 235.471 20.3199 235.887 19.8522 236.459 19.5923 237.134 19.5923 237.758 19.5923 238.278 19.8522 238.694 20.3199 239.109 20.7876 239.265 21.4112 239.265 22.1908L239.265 22.5026 235.679 22.5026C235.731 22.9703 235.835 23.3341 235.991 23.5939 236.199 23.9057 236.563 24.0616 237.083 24.0616 237.394 24.0616 237.654 23.9577 237.914 23.8018 238.174 23.6459 238.278 23.386 238.33 23.1262L239.161 23.1262C239.057 23.6459 238.797 24.0616 238.434 24.3735 238.07 24.6333 237.602 24.7892 237.031 24.7892M229.599 24.6853 229.599 17.9293 230.015 17.9293 230.43 17.9293 230.43 20.4238 230.586 20.2159C230.95 19.8002 231.366 19.5923 231.938 19.5923 232.457 19.5923 232.873 19.7482 233.185 20.0081 233.497 20.3199 233.601 20.7356 233.601 21.2553L233.601 24.6333 233.185 24.6333 232.769 24.6333 232.769 21.4632C232.769 21.0474 232.665 20.7876 232.561 20.5797 232.405 20.4238 232.145 20.3199 231.782 20.3199 231.366 20.3199 231.054 20.4758 230.794 20.7876 230.534 21.0994 230.43 21.5152 230.43 21.9829L230.43 24.5813 230.015 24.5813 229.599 24.5813ZM228.56 24.6333C228.3 24.6853 228.092 24.6853 227.936 24.6853 227.572 24.6853 227.312 24.6333 227.156 24.4254 227.001 24.2695 226.949 24.0097 226.949 23.5939L226.949 20.3718 226.273 20.3718 226.273 19.7482 226.949 19.7482 226.949 18.397 227.78 18.397 227.78 19.7482 228.56 19.7482 228.56 20.4238 227.78 20.4238 227.78 23.6459C227.78 23.7498 227.832 23.8538 227.936 23.9057 228.04 23.9577 228.144 24.0097 228.3 24.0097L228.612 24.0097 228.612 24.6333ZM222.167 19.7482 222.167 22.9183C222.167 23.3341 222.271 23.6459 222.427 23.8018 222.583 23.9577 222.843 24.0616 223.207 24.0616 223.623 24.0616 223.934 23.9057 224.142 23.5939 224.35 23.2821 224.506 22.8664 224.506 22.3467L224.506 19.7482 224.922 19.7482 225.338 19.7482 225.338 24.6333 224.974 24.6333 224.558 24.6333 224.558 23.9057C224.506 24.0097 224.454 24.0616 224.35 24.1656 223.986 24.5813 223.571 24.7892 223.051 24.7892 222.479 24.7892 222.063 24.6333 221.804 24.3735 221.544 24.1136 221.388 23.6979 221.388 23.1262L221.388 19.7482 221.804 19.7482 222.167 19.7482ZM217.854 24.0616C218.27 24.0616 218.634 23.9057 218.893 23.542 219.153 23.1782 219.257 22.7624 219.257 22.1908 219.257 21.6191 219.153 21.1514 218.893 20.8396 218.634 20.5278 218.322 20.3199 217.854 20.3199 217.438 20.3199 217.074 20.4758 216.815 20.8396 216.555 21.2033 216.451 21.6191 216.451 22.1908 216.451 22.7624 216.555 23.2301 216.815 23.542 217.074 23.9057 217.386 24.0616 217.854 24.0616M217.854 24.7892C217.178 24.7892 216.607 24.5294 216.191 24.0616 215.775 23.5939 215.567 22.9703 215.567 22.1908 215.567 21.4112 215.775 20.7876 216.191 20.3199 216.607 19.8522 217.178 19.5923 217.854 19.5923 218.53 19.5923 219.101 19.8522 219.517 20.3199 219.933 20.7876 220.141 21.4112 220.141 22.1908 220.141 22.9703 219.933 23.5939 219.517 24.0616 219.049 24.5294 218.53 24.7892 217.854 24.7892M213.541 19.9041 213.541 19.9041C213.489 19.4884 213.333 19.1766 213.021 18.9167 212.709 18.7088 212.345 18.5529 211.826 18.5529 211.306 18.5529 210.942 18.6569 210.682 18.8647 210.422 19.0726 210.267 19.3325 210.267 19.7482 210.267 20.0081 210.37 20.2159 210.526 20.3199 210.682 20.4238 211.046 20.5797 211.618 20.6837L212.813 20.9435C213.437 21.0994 213.904 21.3073 214.164 21.6191 214.424 21.9309 214.58 22.2947 214.58 22.8664 214.58 23.49 214.372 23.9577 213.904 24.3215 213.437 24.6853 212.813 24.8412 212.033 24.8412 211.15 24.8412 210.474 24.6333 209.955 24.2175 209.487 23.8018 209.227 23.2821 209.227 22.5545L209.227 22.5026 210.059 22.5026C210.059 22.9703 210.267 23.386 210.578 23.6459 210.942 23.9057 211.41 24.0616 211.981 24.0616 212.553 24.0616 212.969 23.9577 213.229 23.7498 213.541 23.542 213.645 23.2821 213.645 22.9183 213.645 22.6065 213.541 22.3467 213.333 22.1908 213.125 22.0349 212.761 21.8789 212.189 21.775L210.994 21.5152C210.422 21.3593 210.007 21.2033 209.747 20.9435 209.487 20.6837 209.383 20.3718 209.383 19.9041 209.383 19.2805 209.591 18.7608 210.059 18.397 210.474 18.0332 211.098 17.8254 211.826 17.8254 212.605 17.8254 213.177 18.0332 213.645 18.397 214.112 18.7608 214.32 19.2805 214.372 19.9561L213.541 19.9561Z" fill="#06383C" transform="matrix(1.0106 0 0 1 54 58.0281)"/></g></g></g></g></svg>